# xmcd CD database file
#
# Track frame offsets:
#	150
#	20315
#	42242
#	61772
#	83040
#	100490
#	128085
#	149767
#	171035
#	191840
#	215250
#	236022
#
# Disc length: 3445 seconds
#
# Revision: 0
# Processed by: cddbd v1.5.1PL0 Copyright (c) Steve Scherf et al.
# Submitted via: CDex 1.51
#
DISCID=a50d730c
DTITLE=MOON CHILD - COMPLETE BEST [DISC. 1]
DYEAR=2005
DGENRE=JPop
TTITLE0=GOLD
TTITLE1=STAR TOURS
TTITLE2=グロリア
TTITLE3=フリスビー
TTITLE4=requiem for the man of nomad
TTITLE5=Hellelujah in the snow
TTITLE6=アネモネ
TTITLE7=ESCAPE
TTITLE8=微熱
TTITLE9=Blue Suede Shooting Star
TTITLE10=Over the rainbow
TTITLE11=Brandnew Gear
EXTD=YEAR: 2005
EXTT0=
EXTT1=
EXTT2=
EXTT3=
EXTT4=
EXTT5=
EXTT6=
EXTT7=
EXTT8=
EXTT9=
EXTT10=
EXTT11=
PLAYORDER=
